<svg data-v-0dd9719b="" version="1.0" xmlns="http://www.w3.org/2000/svg" xmlns:xlink="http://www.w3.org/1999/xlink" width="100%" height="100%" viewBox="0 0 340.000000 250.000000" preserveAspectRatio="xMidYMid meet" color-interpolation-filters="sRGB" style="margin: auto;"> <rect data-v-0dd9719b="" x="0" y="0" width="100%" height="100%" fill="#fff" fill-opacity="1" class="background"></rect> <rect data-v-0dd9719b="" x="0" y="0" width="100%" height="100%" fill="url(#watermark)" fill-opacity="1" class="watermarklayer"></rect> <g data-v-0dd9719b="" fill="#333" class="icon-text-wrapper icon-svg-group iconsvg" transform="translate(50.05000305175781,95.00389671437472)"><g class="iconsvg-imagesvg" transform="translate(0,0)"><g><rect fill="#333" fill-opacity="0" stroke-width="2" x="0" y="0" width="60" height="59.9922010138682" class="image-rect"></rect> <svg x="0" y="0" width="60" height="59.9922010138682" filtersec="colorsb9617554424" class="image-svg-svg primary" style="overflow: visible;"><svg xmlns="http://www.w3.org/2000/svg" viewBox="-0.025064129382371902 0.02431926503777504 99.97372436523438 99.96115112304688"><path d="M92.11 7.56a14.27 14.27 0 0 0-24.36 10.7A17.91 17.91 0 0 1 49.27 35.5a14.42 14.42 0 0 0-13.77 15A17.89 17.89 0 0 1 17 67.72a14.29 14.29 0 1 0 14.9 14.93 17.87 17.87 0 0 1 17.7-18.48h.8a14.23 14.23 0 0 0 7-2.2 13.93 13.93 0 0 0 2.6-2.09 14.23 14.23 0 0 0 4.15-9.45A17.87 17.87 0 0 1 81.86 32h.5a2.8 2.8 0 0 0 .29 0 14.27 14.27 0 0 0 9.46-24.44z" fill="#004e9a"></path><path d="M75.59 43.5a14.22 14.22 0 0 0-4.15 10.7A17.93 17.93 0 0 1 53 71.44a14.28 14.28 0 1 0 14.91 14.9 17.86 17.86 0 0 1 17.65-18.46h.79A14.28 14.28 0 1 0 75.59 43.5zM36.28 4.19a14.22 14.22 0 0 0-4.15 10.7 17.91 17.91 0 0 1-18.48 17.23 14.29 14.29 0 1 0 14.89 14.93 17.87 17.87 0 0 1 17.7-18.48H47A14.28 14.28 0 1 0 36.28 4.19z" fill="#27b4d4"></path><path d="M20.9 20.91a9.91 9.91 0 1 1 0-14 9.9 9.9 0 0 1 0 14zM93.21 93.21a9.91 9.91 0 1 1 0-14 9.9 9.9 0 0 1 0 14z" fill="#004e9a"></path></svg></svg> <!----></g></g> <g transform="translate(67,6.423284530639648)"><g data-gra="path-name" fill-rule="" class="tp-name iconsvg-namesvg"><g transform="scale(1)"><g><path d="M7.93-1.51Q7.93-1.04 7.46-0.52 6.99 0 6.21 0L6.21 0Q5.53 0 5.01-0.55 4.49-1.1 4.49-1.57L4.49-1.57 4.49-35.63Q4.49-36.16 4.98-36.63 5.48-37.1 6.21-37.1L6.21-37.1Q6.94-37.1 7.43-36.63 7.93-36.16 7.93-35.63L7.93-35.63 7.93-1.51ZM14.77-14.24Q14.77-14.61 14.79-15.05 14.82-15.5 15.37-17.37 15.91-19.25 16.43-20.37 16.96-21.5 17.84-22.54 18.73-23.58 19.7-24.37 20.66-25.15 22.3-25.85 23.95-26.56 25.43-26.87 26.92-27.18 28.54-27.13L28.54-27.13Q30.26-27.08 32.61-26.4 34.96-25.72 36.13-24.68 37.3-23.63 38.03-22.75 38.77-21.86 39.44-20.58 40.12-19.3 40.02-18.57L40.02-18.57Q39.91-17.9 39.44-17.5 38.97-17.11 38.3-17.11L38.3-17.11Q37.77-17.11 37.41-17.35 37.04-17.58 36.83-18.1L36.83-18.1 36.42-19.36Q36.21-19.88 35.45-20.95 34.7-22.02 32.95-23.19 31.2-24.37 28.12-24.37L28.12-24.37Q24.31-24.37 22.1-22.46 19.88-20.56 18.99-18.18 18.1-15.81 18.1-13.3L18.1-13.3Q18.1-12 18.47-10.28 18.83-8.56 19.41-7.57 19.98-6.57 21.34-5.35 22.7-4.12 24.08-3.57 25.46-3.03 27.44-2.92L27.44-2.92Q29.63-2.82 31.12-3.26 32.61-3.7 33.89-4.51 35.17-5.32 35.82-6.42 36.47-7.51 36.68-8.56 36.89-9.6 36.99-9.81 37.1-10.02 37.46-10.33 37.83-10.64 38.61-10.67 39.39-10.7 39.76-10.3 40.12-9.91 40.15-9.37 40.17-8.82 39.91-7.93L39.91-7.93Q39.65-6.99 39.1-5.71 38.56-4.43 36.89-2.95 35.22-1.46 32.9-0.76 30.57-0.05 28.17 0L28.17 0Q25.41 0.05 23.09-0.81 20.77-1.67 19.12-3.13 17.48-4.59 16.59-6.37 15.7-8.14 15.42-9.1 15.13-10.07 14.95-11.4 14.77-12.73 14.77-14.24L14.77-14.24ZM47.37-12.68Q47.32-11.79 47.37-11.17 47.43-10.54 47.82-9.39 48.21-8.24 48.76-7.3 49.3-6.37 50.01-5.69 50.71-5.01 51.65-4.38 52.59-3.76 53.84-3.31 55.1-2.87 56.56-2.77L56.56-2.77Q57.34-2.71 58.38-2.82 59.43-2.92 60.42-3.21 61.41-3.5 62.43-4.1 63.44-4.7 64.36-5.5 65.27-6.31 65.79-7.2L65.79-7.2 66.78-9.03Q66.99-9.39 67.23-9.52 67.46-9.65 68.17-9.68 68.87-9.7 69.21-9.31 69.55-8.92 69.73-8.11 69.91-7.3 68.35-5.32L68.35-5.32Q67.25-3.91 66-2.79 64.75-1.67 63.03-0.99 61.3-0.31 59.97-0.05 58.64 0.21 57.18 0.21L57.18 0.21Q55.72 0.21 54.5 0 53.27-0.21 51.65-0.83 50.03-1.46 48.6-2.71 47.17-3.97 46.15-5.53 45.13-7.1 44.63-8.92 44.14-10.75 44.14-12.34 44.14-13.93 44.35-15.29L44.35-15.29Q44.66-17.32 45.26-18.86 45.86-20.4 46.64-21.52 47.43-22.64 48.86-23.9 50.3-25.15 52.64-25.96 54.99-26.77 57.34-26.77L57.34-26.77Q59.69-26.77 62.01-25.93 64.33-25.1 65.87-23.71 67.41-22.33 68.37-20.82 69.34-19.3 69.68-17.87 70.02-16.43 69.97-15.76L69.97-15.76Q69.91-14.97 69.63-14.45 69.34-13.93 68.9-13.54 68.45-13.15 67.64-12.91 66.83-12.68 66-12.68L66-12.68 47.37-12.68ZM63.23-15.39Q66.1-15.39 66.34-15.7 66.57-16.02 66.63-16.43 66.68-16.85 66.37-17.79L66.37-17.79Q66.05-18.73 65.69-19.33 65.32-19.93 64.49-20.79 63.65-21.65 62.69-22.3 61.72-22.96 60.29-23.37 58.85-23.79 57.23-23.79L57.23-23.79Q55.25-23.79 53.71-23.22 52.17-22.64 51.05-21.81 49.93-20.97 48.99-19.64 48.05-18.31 47.9-17.27L47.9-17.27 47.58-15.39 63.23-15.39ZM81.29-6.63L74.45-24Q74.14-24.78 74.43-25.33 74.71-25.88 75.18-26.09 75.65-26.3 76.3-26.14 76.96-25.98 77.22-25.36L77.22-25.36 84.31-7.62 85.51-4.43 86.3-2.09Q86.45-1.93 86.56-1.93 86.66-1.93 86.82-2.06 86.97-2.19 87.08-2.5L87.08-2.5 90.21-11.53 95.22-25.36Q95.43-25.98 96.1-26.22 96.78-26.45 97.33-26.14 97.88-25.83 98.11-25.28 98.35-24.73 98.14-24.16L98.14-24.16 92.24-7.98 88.43 2.24Q87.18 5.58 86.45 6.86 85.72 8.14 84.68 8.84 83.63 9.55 82.15 9.83 80.66 10.12 79.67 10.02L79.67 10.02Q79.1 10.02 76.96 9.5 74.82 8.97 74.35 8.32 73.88 7.67 73.88 7.28 73.88 6.89 74.09 6.37 74.3 5.84 74.87 5.69L74.87 5.69Q75.39 5.53 76.12 5.79L76.12 5.79 77.74 6.52Q78.68 6.94 80.09 6.94L80.09 6.94Q81.44 6.99 82.2 6.63 82.96 6.26 83.37 5.82 83.79 5.37 84.1 4.85 84.42 4.33 84.7 3.76 84.99 3.18 85.04 2.92 85.1 2.66 85.1 2.5L85.1 2.5Q85.1 2.35 85.07 2.24 85.04 2.14 84.89 1.83L84.89 1.83 81.29-6.63ZM104.71-22.85L101.63-22.85Q100.85-22.85 100.46-23.4 100.07-23.95 100.07-24.57L100.07-24.57Q100.07-25.15 100.46-25.64 100.85-26.14 101.63-26.14L101.63-26.14 104.71-26.14 104.71-33.13Q104.71-33.76 105.26-34.12 105.81-34.49 106.43-34.43L106.43-34.43Q106.8-34.38 107.35-34.1 107.9-33.81 107.9-33.13L107.9-33.13 107.9-26.09 117.23-26.09Q118.02-26.09 118.36-25.51 118.7-24.94 118.7-24.37L118.7-24.37Q118.64-23.95 118.3-23.4 117.97-22.85 117.23-22.85L117.23-22.85 107.9-22.85 107.9-10.38Q107.9-8.66 108.13-7.41 108.37-6.16 109.25-5.24 110.14-4.33 110.97-3.91 111.81-3.5 113.11-3.5L113.11-3.5Q114.31-3.5 115.12-3.97 115.93-4.43 116.35-5.11L116.35-5.11 117.08-6.42Q117.39-6.94 117.78-7.15 118.17-7.36 118.72-7.38 119.27-7.41 119.74-6.94 120.21-6.47 120.26-6 120.31-5.53 119.9-4.7L119.9-4.7Q119.06-3.08 118.3-2.3 117.55-1.51 116.17-0.89 114.78-0.26 113.01-0.26L113.01-0.26Q111.34-0.26 109.75-0.91 108.16-1.57 107.22-2.58 106.28-3.6 105.47-5.32 104.66-7.04 104.66-8.09 104.66-9.13 104.66-9.18L104.66-9.18 104.71-22.85ZM140.45-14.56L135.7-14.35Q132.05-14.19 130.25-13.38 128.45-12.57 127.49-11.43 126.52-10.28 126.5-8.84 126.47-7.41 126.89-6.52L126.89-6.52Q127.3-5.53 128.45-4.57 129.6-3.6 131.63-3.16 133.67-2.71 135.97-2.87L135.97-2.87Q137.74-2.97 139.2-3.44 140.66-3.91 141.89-4.75 143.11-5.58 143.95-6.7 144.78-7.83 145.07-8.69 145.36-9.55 145.54-10.67 145.72-11.79 145.77-13.7 145.83-15.6 145.72-15.7 145.62-15.81 145.59-15.73 145.57-15.65 143.9-15.03L143.9-15.03Q143.53-14.87 142.64-14.77L142.64-14.77 140.45-14.56ZM148.54-6.73Q148.49-5.06 148.59-3.81L148.59-3.81Q148.7-2.66 148.8-2.19L148.8-2.19Q148.96-1.51 148.85-1.04L148.85-1.04Q148.64-0.57 148.38-0.37L148.38-0.37Q147.97-0.05 147.5-0.1L147.5-0.1Q146.97-0.1 146.56-0.42L146.56-0.42Q146.19-0.63 145.93-1.25L145.93-1.25Q145.67-1.88 145.67-2.45L145.67-2.45 145.72-3.65 145.72-3.91Q145.72-4.12 145.67-4.17L145.67-4.17 145.41-4.33 145.36-4.33Q145.2-4.33 144.83-3.97L144.83-3.97Q144.31-3.29 144-3.03L144-3.03 142.9-2.24Q142.23-1.77 141.18-1.25L141.18-1.25Q140.35-0.83 138.68-0.42L138.68-0.42Q137.01 0 134.77 0L134.77 0Q132.16 0 129.97-0.68L129.97-0.68Q127.51-1.46 126.16-2.66L126.16-2.66Q124.54-4.02 124.02-5.37L124.02-5.37Q123.39-6.78 123.39-8.56L123.39-8.56Q123.39-9.81 123.81-10.96L123.81-10.96Q124.23-12.16 124.85-13.04L124.85-13.04Q125.63-14.03 127.15-15.08L127.15-15.08Q128.82-16.17 130.64-16.54L130.64-16.54Q132.63-16.96 133.41-17.01L133.41-17.01 137.9-17.17Q139.98-17.22 141.5-17.43L141.5-17.43Q142.49-17.48 143.58-17.79L143.58-17.79Q144.37-18.05 144.99-18.73L144.99-18.73Q145.72-19.46 145.72-20.24L145.72-20.24Q145.72-20.97 144.73-21.86L144.73-21.86Q143.37-22.85 141.13-23.45 138.89-24.05 137.48-24.05L137.48-24.05Q131.84-24.05 129.08-21.08L129.08-21.08 127.88-19.72Q127.62-19.36 127.25-19.2L127.25-19.2Q126.89-18.99 126.42-18.99L126.42-18.99 126.31-18.99Q125.95-18.99 125.48-19.36L125.48-19.36Q124.9-19.83 124.9-20.56L124.9-20.56Q124.9-21.23 126-22.54L126-22.54Q130.59-26.82 136.38-26.82L136.38-26.82Q139.67-26.82 142.51-25.93 145.36-25.04 147.08-23.32 148.8-21.6 148.8-19.15L148.8-19.15 148.75-14.03 148.54-6.73ZM165.86-26.09Q169.57-26.09 172.17-24.23 174.78-22.38 176.09-19.43 177.39-16.49 177.39-13.15L177.39-13.15Q177.39-9.7 176.09-6.7 174.78-3.7 172.12-1.85 169.46 0 165.6 0L165.6 0Q161.95 0 159.21-1.83 156.47-3.65 155.03-6.68 153.6-9.7 153.6-13.3L153.6-13.3Q153.6-16.7 154.93-19.59 156.26-22.49 159.03-24.29 161.79-26.09 165.86-26.09L165.86-26.09ZM165.6-23.11Q162.89-23.11 160.72-21.89 158.56-20.66 157.3-18.31 156.05-15.97 156.05-12.78L156.05-12.78Q156.05-9.5 157.46-7.2 158.87-4.9 161.11-3.76 163.36-2.61 165.91-2.61L165.91-2.61Q168.05-2.61 170.11-3.83 172.17-5.06 173.45-7.3 174.73-9.55 174.73-12.47L174.73-12.47Q174.73-17.43 172.2-20.27 169.67-23.11 165.6-23.11L165.6-23.11Z" transform="translate(-4.489999771118164, 37.099998474121094)"></path></g> <!----> <!----> <!----> <!----> <!----> <!----> <!----></g></g> <!----></g></g><defs v-gra="od"></defs></svg>